<svg width="170" height="107" viewBox="0 0 170 107" fill="none" xmlns="http://www.w3.org/2000/svg">
<rect y="68" width="170" height="39" fill="#1C1C1C"/>
<path d="M32.4766 93.5518C31.5566 93.9971 30.3555 94.2197 28.873 94.2197C26.9395 94.2197 25.4189 93.6514 24.3115 92.5146C23.2041 91.3779 22.6504 89.8633 22.6504 87.9707C22.6504 85.9551 23.2715 84.3203 24.5137 83.0664C25.7617 81.8125 27.3789 81.1855 29.3652 81.1855C30.5957 81.1855 31.6328 81.3408 32.4766 81.6514V84.3848C31.6328 83.8809 30.6719 83.6289 29.5938 83.6289C28.4102 83.6289 27.4551 84.001 26.7285 84.7451C26.002 85.4893 25.6387 86.4971 25.6387 87.7686C25.6387 88.9873 25.9814 89.96 26.667 90.6865C27.3525 91.4072 28.2754 91.7676 29.4355 91.7676C30.543 91.7676 31.5566 91.498 32.4766 90.959V93.5518ZM43.5244 83.708H39.9297V94H37.082V83.708H33.5049V81.3965H43.5244V83.708ZM49.8789 94.2197C48.0742 94.2197 46.6035 93.6338 45.4668 92.4619C44.3301 91.2842 43.7617 89.752 43.7617 87.8652C43.7617 85.873 44.3389 84.2617 45.4932 83.0312C46.6475 81.8008 48.1768 81.1855 50.0811 81.1855C51.8799 81.1855 53.333 81.7744 54.4404 82.9521C55.5537 84.1299 56.1104 85.6826 56.1104 87.6104C56.1104 89.5908 55.5332 91.1875 54.3789 92.4004C53.2305 93.6133 51.7305 94.2197 49.8789 94.2197ZM50.002 83.6289C49.0059 83.6289 48.2148 84.0039 47.6289 84.7539C47.043 85.498 46.75 86.4854 46.75 87.7158C46.75 88.9639 47.043 89.9512 47.6289 90.6777C48.2148 91.4043 48.9824 91.7676 49.9316 91.7676C50.9102 91.7676 51.6865 91.416 52.2607 90.7129C52.835 90.0039 53.1221 89.0225 53.1221 87.7686C53.1221 86.4619 52.8438 85.4453 52.2871 84.7188C51.7305 83.9922 50.9688 83.6289 50.002 83.6289ZM72.2207 93.5518C71.3008 93.9971 70.0996 94.2197 68.6172 94.2197C66.6836 94.2197 65.1631 93.6514 64.0557 92.5146C62.9482 91.3779 62.3945 89.8633 62.3945 87.9707C62.3945 85.9551 63.0156 84.3203 64.2578 83.0664C65.5059 81.8125 67.123 81.1855 69.1094 81.1855C70.3398 81.1855 71.377 81.3408 72.2207 81.6514V84.3848C71.377 83.8809 70.416 83.6289 69.3379 83.6289C68.1543 83.6289 67.1992 84.001 66.4727 84.7451C65.7461 85.4893 65.3828 86.4971 65.3828 87.7686C65.3828 88.9873 65.7256 89.96 66.4111 90.6865C67.0967 91.4072 68.0195 91.7676 69.1797 91.7676C70.2871 91.7676 71.3008 91.498 72.2207 90.959V93.5518ZM78.4346 94.2197C76.9346 94.2197 75.7539 93.8008 74.8926 92.9629C74.0371 92.1191 73.6094 90.9766 73.6094 89.5352C73.6094 88.0469 74.0547 86.8838 74.9453 86.0459C75.8359 85.2021 77.04 84.7803 78.5576 84.7803C80.0518 84.7803 81.2236 85.2021 82.0732 86.0459C82.9229 86.8838 83.3477 87.9941 83.3477 89.377C83.3477 90.8711 82.9082 92.0518 82.0293 92.9189C81.1562 93.7861 79.958 94.2197 78.4346 94.2197ZM78.5049 86.9072C77.8486 86.9072 77.3389 87.1328 76.9756 87.584C76.6123 88.0352 76.4307 88.6738 76.4307 89.5C76.4307 91.2285 77.1279 92.0928 78.5225 92.0928C79.8525 92.0928 80.5176 91.2051 80.5176 89.4297C80.5176 87.748 79.8467 86.9072 78.5049 86.9072ZM89.4385 94.2197C87.9385 94.2197 86.7578 93.8008 85.8965 92.9629C85.041 92.1191 84.6133 90.9766 84.6133 89.5352C84.6133 88.0469 85.0586 86.8838 85.9492 86.0459C86.8398 85.2021 88.0439 84.7803 89.5615 84.7803C91.0557 84.7803 92.2275 85.2021 93.0771 86.0459C93.9268 86.8838 94.3516 87.9941 94.3516 89.377C94.3516 90.8711 93.9121 92.0518 93.0332 92.9189C92.1602 93.7861 90.9619 94.2197 89.4385 94.2197ZM89.5088 86.9072C88.8525 86.9072 88.3428 87.1328 87.9795 87.584C87.6162 88.0352 87.4346 88.6738 87.4346 89.5C87.4346 91.2285 88.1318 92.0928 89.5264 92.0928C90.8564 92.0928 91.5215 91.2051 91.5215 89.4297C91.5215 87.748 90.8506 86.9072 89.5088 86.9072ZM105.171 94H101.84L98.9658 89.5352H98.9307V94H96.1533V80.6758H98.9307V89.1572H98.9658L101.646 85H104.942L101.717 89.2275L105.171 94ZM109.038 92.9541H109.003V94H106.226V80.6758H109.003V86.3535H109.038C109.724 85.3047 110.699 84.7803 111.965 84.7803C113.125 84.7803 114.019 85.1787 114.646 85.9756C115.272 86.7725 115.586 87.8623 115.586 89.2451C115.586 90.7451 115.22 91.9492 114.487 92.8574C113.755 93.7656 112.776 94.2197 111.552 94.2197C110.444 94.2197 109.606 93.7979 109.038 92.9541ZM108.959 89.1572V90.0801C108.959 90.6602 109.126 91.1406 109.46 91.5215C109.794 91.9023 110.222 92.0928 110.743 92.0928C111.376 92.0928 111.865 91.8496 112.211 91.3633C112.562 90.8711 112.738 90.1768 112.738 89.2803C112.738 88.5361 112.577 87.9561 112.255 87.54C111.938 87.1182 111.484 86.9072 110.893 86.9072C110.336 86.9072 109.873 87.1152 109.504 87.5312C109.141 87.9473 108.959 88.4893 108.959 89.1572ZM121.677 94.2197C120.177 94.2197 118.996 93.8008 118.135 92.9629C117.279 92.1191 116.852 90.9766 116.852 89.5352C116.852 88.0469 117.297 86.8838 118.188 86.0459C119.078 85.2021 120.282 84.7803 121.8 84.7803C123.294 84.7803 124.466 85.2021 125.315 86.0459C126.165 86.8838 126.59 87.9941 126.59 89.377C126.59 90.8711 126.15 92.0518 125.271 92.9189C124.398 93.7861 123.2 94.2197 121.677 94.2197ZM121.747 86.9072C121.091 86.9072 120.581 87.1328 120.218 87.584C119.854 88.0352 119.673 88.6738 119.673 89.5C119.673 91.2285 120.37 92.0928 121.765 92.0928C123.095 92.0928 123.76 91.2051 123.76 89.4297C123.76 87.748 123.089 86.9072 121.747 86.9072ZM132.681 94.2197C131.181 94.2197 130 93.8008 129.139 92.9629C128.283 92.1191 127.855 90.9766 127.855 89.5352C127.855 88.0469 128.301 86.8838 129.191 86.0459C130.082 85.2021 131.286 84.7803 132.804 84.7803C134.298 84.7803 135.47 85.2021 136.319 86.0459C137.169 86.8838 137.594 87.9941 137.594 89.377C137.594 90.8711 137.154 92.0518 136.275 92.9189C135.402 93.7861 134.204 94.2197 132.681 94.2197ZM132.751 86.9072C132.095 86.9072 131.585 87.1328 131.222 87.584C130.858 88.0352 130.677 88.6738 130.677 89.5C130.677 91.2285 131.374 92.0928 132.769 92.0928C134.099 92.0928 134.764 91.2051 134.764 89.4297C134.764 87.748 134.093 86.9072 132.751 86.9072ZM148.413 94H145.082L142.208 89.5352H142.173V94H139.396V80.6758H142.173V89.1572H142.208L144.889 85H148.185L144.959 89.2275L148.413 94Z" fill="white"/>
<path fill-rule="evenodd" clip-rule="evenodd" d="M84 68V0H85V68H84Z" fill="#2C2C2C"/>
</svg>
