<svg width="21" height="20" viewBox="0 0 21 20" fill="none" xmlns="http://www.w3.org/2000/svg">
<path fill-rule="evenodd" clip-rule="evenodd" d="M17.7815 5.55686C17.7815 5.86373 17.5327 6.11253 17.2258 6.11253H14.4475C14.1406 6.11253 13.8918 5.86373 13.8918 5.55686V2.7785C13.8918 2.47163 14.1406 2.22283 14.4475 2.22283H17.2258C17.5327 2.22283 17.7815 2.47163 17.7815 2.7785V5.55686ZM17.7816 17.2257C17.7816 17.5326 17.5328 17.7814 17.226 17.7814H2.7785C2.47163 17.7814 2.22283 17.5326 2.22283 17.2257V8.33498H4.12003C3.97014 8.86489 3.88984 9.4241 3.88984 10.002C3.88984 13.3778 6.62645 16.1144 10.0022 16.1144C13.378 16.1144 16.1146 13.3778 16.1146 10.002C16.1146 9.4241 16.0343 8.86489 15.8844 8.33498H17.7816V17.2257ZM10.0019 6.11216C12.1501 6.11216 13.8916 7.85363 13.8916 10.0019C13.8916 12.1501 12.1501 13.8916 10.0019 13.8916C7.85363 13.8916 6.11216 12.1501 6.11216 10.0019C6.11216 7.85363 7.85363 6.11216 10.0019 6.11216ZM17.2258 0H2.77836C1.24394 0 0 1.24394 0 2.77836V17.2258C0 18.7602 1.24394 20.0042 2.77836 20.0042H17.2258C18.7602 20.0042 20.0042 18.7602 20.0042 17.2258V2.77836C20.0042 1.24394 18.7602 0 17.2258 0Z" fill="white"/>
</svg>
