<svg width="12" height="12" viewBox="0 0 12 12" fill="none" xmlns="http://www.w3.org/2000/svg">
<path d="M4.625 11.125C6.69607 11.125 8.375 9.44607 8.375 7.375C8.375 5.30393 6.69607 3.625 4.625 3.625C2.55393 3.625 0.875 5.30393 0.875 7.375C0.875 9.44607 2.55393 11.125 4.625 11.125Z" fill="white"/>
<path opacity="0.3" fill-rule="evenodd" clip-rule="evenodd" d="M4.50073 2.37651C5.14891 1.2548 6.36127 0.5 7.74992 0.5C9.82099 0.5 11.4999 2.17893 11.4999 4.25C11.4999 5.63865 10.7451 6.85101 9.62341 7.49919C9.62442 7.45792 9.62492 7.41652 9.62492 7.375C9.62492 4.61358 7.38635 2.375 4.62492 2.375C4.58341 2.375 4.54201 2.37551 4.50073 2.37651Z" fill="white"/>
</svg>
