<svg width="198" height="55" viewBox="0 0 198 55" fill="none" xmlns="http://www.w3.org/2000/svg">
<path d="M80.4766 33.5518C79.5566 33.9971 78.3555 34.2197 76.873 34.2197C74.9395 34.2197 73.4189 33.6514 72.3115 32.5146C71.2041 31.3779 70.6504 29.8633 70.6504 27.9707C70.6504 25.9551 71.2715 24.3203 72.5137 23.0664C73.7617 21.8125 75.3789 21.1855 77.3652 21.1855C78.5957 21.1855 79.6328 21.3408 80.4766 21.6514V24.3848C79.6328 23.8809 78.6719 23.6289 77.5938 23.6289C76.4102 23.6289 75.4551 24.001 74.7285 24.7451C74.002 25.4893 73.6387 26.4971 73.6387 27.7686C73.6387 28.9873 73.9814 29.96 74.667 30.6865C75.3525 31.4072 76.2754 31.7676 77.4355 31.7676C78.543 31.7676 79.5566 31.498 80.4766 30.959V33.5518ZM88.2725 27.5049C87.9385 27.3232 87.5488 27.2324 87.1035 27.2324C86.5 27.2324 86.0283 27.4551 85.6885 27.9004C85.3486 28.3398 85.1787 28.9404 85.1787 29.7021V34H82.4014V25H85.1787V26.6699H85.2139C85.6533 25.4512 86.4443 24.8418 87.5869 24.8418C87.8799 24.8418 88.1084 24.877 88.2725 24.9473V27.5049ZM97.5889 30.291H91.7178C91.8115 31.5977 92.6348 32.251 94.1875 32.251C95.1777 32.251 96.0479 32.0166 96.7979 31.5479V33.5518C95.9658 33.9971 94.8848 34.2197 93.5547 34.2197C92.1016 34.2197 90.9736 33.8184 90.1709 33.0156C89.3682 32.207 88.9668 31.082 88.9668 29.6406C88.9668 28.1465 89.4004 26.9629 90.2676 26.0898C91.1348 25.2168 92.2012 24.7803 93.4668 24.7803C94.7793 24.7803 95.793 25.1699 96.5078 25.9492C97.2285 26.7285 97.5889 27.7861 97.5889 29.1221V30.291ZM95.0137 28.5859C95.0137 27.2969 94.4922 26.6523 93.4492 26.6523C93.0039 26.6523 92.6172 26.8369 92.2891 27.2061C91.9668 27.5752 91.7705 28.0352 91.7002 28.5859H95.0137ZM106.729 34H104.102V32.708H104.066C103.463 33.7158 102.569 34.2197 101.386 34.2197C100.513 34.2197 99.8242 33.9736 99.3203 33.4814C98.8223 32.9834 98.5732 32.3213 98.5732 31.4951C98.5732 29.749 99.6074 28.7412 101.676 28.4717L104.119 28.1465C104.119 27.1621 103.586 26.6699 102.52 26.6699C101.447 26.6699 100.428 26.9893 99.4609 27.6279V25.5361C99.8477 25.3369 100.375 25.1611 101.043 25.0088C101.717 24.8564 102.329 24.7803 102.88 24.7803C105.446 24.7803 106.729 26.0605 106.729 28.6211V34ZM104.119 30.3438V29.7373L102.484 29.9482C101.582 30.0654 101.131 30.4727 101.131 31.1699C101.131 31.4863 101.239 31.7471 101.456 31.9521C101.679 32.1514 101.978 32.251 102.353 32.251C102.874 32.251 103.299 32.0723 103.627 31.7148C103.955 31.3516 104.119 30.8945 104.119 30.3438ZM114.367 33.8945C113.957 34.1113 113.339 34.2197 112.513 34.2197C110.556 34.2197 109.577 33.2031 109.577 31.1699V27.0479H108.118V25H109.577V23.0576L112.346 22.2666V25H114.367V27.0479H112.346V30.6865C112.346 31.624 112.718 32.0928 113.462 32.0928C113.755 32.0928 114.057 32.0078 114.367 31.8379V33.8945ZM123.956 30.291H118.085C118.179 31.5977 119.002 32.251 120.555 32.251C121.545 32.251 122.415 32.0166 123.165 31.5479V33.5518C122.333 33.9971 121.252 34.2197 119.922 34.2197C118.469 34.2197 117.341 33.8184 116.538 33.0156C115.735 32.207 115.334 31.082 115.334 29.6406C115.334 28.1465 115.768 26.9629 116.635 26.0898C117.502 25.2168 118.568 24.7803 119.834 24.7803C121.146 24.7803 122.16 25.1699 122.875 25.9492C123.596 26.7285 123.956 27.7861 123.956 29.1221V30.291ZM121.381 28.5859C121.381 27.2969 120.859 26.6523 119.816 26.6523C119.371 26.6523 118.984 26.8369 118.656 27.2061C118.334 27.5752 118.138 28.0352 118.067 28.5859H121.381ZM126.848 27.7861C126.391 27.7861 126.01 27.6484 125.705 27.373C125.4 27.0918 125.248 26.7461 125.248 26.3359C125.248 25.9141 125.403 25.5684 125.714 25.2988C126.03 25.0293 126.423 24.8945 126.892 24.8945C127.366 24.8945 127.753 25.0322 128.052 25.3076C128.356 25.5771 128.509 25.9199 128.509 26.3359C128.509 26.7637 128.354 27.1123 128.043 27.3818C127.738 27.6514 127.34 27.7861 126.848 27.7861ZM126.848 34.2197C126.391 34.2197 126.01 34.0791 125.705 33.7979C125.4 33.5166 125.248 33.1709 125.248 32.7607C125.248 32.3389 125.403 31.9932 125.714 31.7236C126.03 31.4541 126.423 31.3193 126.892 31.3193C127.366 31.3193 127.753 31.457 128.052 31.7324C128.356 32.002 128.509 32.3447 128.509 32.7607C128.509 33.1885 128.354 33.54 128.043 33.8154C127.738 34.085 127.34 34.2197 126.848 34.2197ZM131.734 27.7861C131.277 27.7861 130.896 27.6484 130.592 27.373C130.287 27.0918 130.135 26.7461 130.135 26.3359C130.135 25.9141 130.29 25.5684 130.601 25.2988C130.917 25.0293 131.31 24.8945 131.778 24.8945C132.253 24.8945 132.64 25.0322 132.938 25.3076C133.243 25.5771 133.396 25.9199 133.396 26.3359C133.396 26.7637 133.24 27.1123 132.93 27.3818C132.625 27.6514 132.227 27.7861 131.734 27.7861ZM131.734 34.2197C131.277 34.2197 130.896 34.0791 130.592 33.7979C130.287 33.5166 130.135 33.1709 130.135 32.7607C130.135 32.3389 130.29 31.9932 130.601 31.7236C130.917 31.4541 131.31 31.3193 131.778 31.3193C132.253 31.3193 132.64 31.457 132.938 31.7324C133.243 32.002 133.396 32.3447 133.396 32.7607C133.396 33.1885 133.24 33.54 132.93 33.8154C132.625 34.085 132.227 34.2197 131.734 34.2197ZM135.074 33.5166V30.7041C135.584 31.1318 136.138 31.4541 136.735 31.6709C137.333 31.8818 137.937 31.9873 138.546 31.9873C138.903 31.9873 139.214 31.9551 139.478 31.8906C139.747 31.8262 139.97 31.7383 140.146 31.627C140.327 31.5098 140.462 31.375 140.55 31.2227C140.638 31.0645 140.682 30.8945 140.682 30.7129C140.682 30.4668 140.611 30.2471 140.471 30.0537C140.33 29.8604 140.137 29.6816 139.891 29.5176C139.65 29.3535 139.363 29.1953 139.029 29.043C138.695 28.8906 138.335 28.7354 137.948 28.5771C136.964 28.167 136.229 27.666 135.742 27.0742C135.262 26.4824 135.021 25.7676 135.021 24.9297C135.021 24.2734 135.153 23.7109 135.417 23.2422C135.681 22.7676 136.038 22.3779 136.489 22.0732C136.946 21.7686 137.474 21.5459 138.071 21.4053C138.669 21.2588 139.302 21.1855 139.97 21.1855C140.626 21.1855 141.206 21.2266 141.71 21.3086C142.22 21.3848 142.688 21.5049 143.116 21.6689V24.2969C142.905 24.1504 142.674 24.0215 142.422 23.9102C142.176 23.7988 141.921 23.708 141.657 23.6377C141.394 23.5615 141.13 23.5059 140.866 23.4707C140.608 23.4355 140.362 23.418 140.128 23.418C139.806 23.418 139.513 23.4502 139.249 23.5146C138.985 23.5732 138.763 23.6582 138.581 23.7695C138.399 23.8809 138.259 24.0156 138.159 24.1738C138.06 24.3262 138.01 24.499 138.01 24.6924C138.01 24.9033 138.065 25.0938 138.177 25.2637C138.288 25.4277 138.446 25.5859 138.651 25.7383C138.856 25.8848 139.105 26.0312 139.398 26.1777C139.691 26.3184 140.022 26.4648 140.392 26.6172C140.896 26.8281 141.347 27.0537 141.745 27.2939C142.149 27.5283 142.495 27.7949 142.782 28.0938C143.069 28.3926 143.289 28.7354 143.441 29.1221C143.594 29.5029 143.67 29.9482 143.67 30.458C143.67 31.1611 143.535 31.7529 143.266 32.2334C143.002 32.708 142.642 33.0947 142.185 33.3936C141.728 33.6865 141.194 33.8975 140.585 34.0264C139.981 34.1553 139.343 34.2197 138.669 34.2197C137.978 34.2197 137.318 34.1611 136.691 34.0439C136.07 33.9268 135.531 33.751 135.074 33.5166ZM150.455 33.8945C150.045 34.1113 149.427 34.2197 148.601 34.2197C146.644 34.2197 145.665 33.2031 145.665 31.1699V27.0479H144.206V25H145.665V23.0576L148.434 22.2666V25H150.455V27.0479H148.434V30.6865C148.434 31.624 148.806 32.0928 149.55 32.0928C149.843 32.0928 150.145 32.0078 150.455 31.8379V33.8945ZM159.517 34H156.889V32.708H156.854C156.25 33.7158 155.356 34.2197 154.173 34.2197C153.3 34.2197 152.611 33.9736 152.107 33.4814C151.609 32.9834 151.36 32.3213 151.36 31.4951C151.36 29.749 152.395 28.7412 154.463 28.4717L156.906 28.1465C156.906 27.1621 156.373 26.6699 155.307 26.6699C154.234 26.6699 153.215 26.9893 152.248 27.6279V25.5361C152.635 25.3369 153.162 25.1611 153.83 25.0088C154.504 24.8564 155.116 24.7803 155.667 24.7803C158.233 24.7803 159.517 26.0605 159.517 28.6211V34ZM156.906 30.3438V29.7373L155.271 29.9482C154.369 30.0654 153.918 30.4727 153.918 31.1699C153.918 31.4863 154.026 31.7471 154.243 31.9521C154.466 32.1514 154.765 32.251 155.14 32.251C155.661 32.251 156.086 32.0723 156.414 31.7148C156.742 31.3516 156.906 30.8945 156.906 30.3438ZM167.585 27.5049C167.251 27.3232 166.861 27.2324 166.416 27.2324C165.812 27.2324 165.341 27.4551 165.001 27.9004C164.661 28.3398 164.491 28.9404 164.491 29.7021V34H161.714V25H164.491V26.6699H164.526C164.966 25.4512 165.757 24.8418 166.899 24.8418C167.192 24.8418 167.421 24.877 167.585 24.9473V27.5049ZM174.854 33.8945C174.443 34.1113 173.825 34.2197 172.999 34.2197C171.042 34.2197 170.063 33.2031 170.063 31.1699V27.0479H168.604V25H170.063V23.0576L172.832 22.2666V25H174.854V27.0479H172.832V30.6865C172.832 31.624 173.204 32.0928 173.948 32.0928C174.241 32.0928 174.543 32.0078 174.854 31.8379V33.8945ZM184.979 34H182.21V32.6289H182.166C181.48 33.6895 180.563 34.2197 179.415 34.2197C177.329 34.2197 176.286 32.957 176.286 30.4316V25H179.055V30.1855C179.055 31.457 179.559 32.0928 180.566 32.0928C181.064 32.0928 181.463 31.9199 181.762 31.5742C182.061 31.2227 182.21 30.748 182.21 30.1504V25H184.979V34ZM190.138 32.9541H190.103V38.1396H187.325V25H190.103V26.3535H190.138C190.823 25.3047 191.787 24.7803 193.029 24.7803C194.195 24.7803 195.095 25.1816 195.728 25.9844C196.366 26.7812 196.686 27.8682 196.686 29.2451C196.686 30.7451 196.313 31.9492 195.569 32.8574C194.831 33.7656 193.847 34.2197 192.616 34.2197C191.532 34.2197 190.706 33.7979 190.138 32.9541ZM190.059 29.2627V29.9834C190.059 30.6045 190.223 31.1113 190.551 31.5039C190.879 31.8965 191.31 32.0928 191.843 32.0928C192.476 32.0928 192.965 31.8496 193.311 31.3633C193.662 30.8711 193.838 30.1768 193.838 29.2803C193.838 27.6982 193.223 26.9072 191.992 26.9072C191.424 26.9072 190.958 27.124 190.595 27.5576C190.237 27.9854 190.059 28.5537 190.059 29.2627Z" fill="white"/>
<path fill-rule="evenodd" clip-rule="evenodd" d="M0 25.6667H25.6667V0H0V25.6667Z" fill="#F25022"/>
<path fill-rule="evenodd" clip-rule="evenodd" d="M29.3333 25.6667H55V0H29.3333V25.6667Z" fill="#7FBA00"/>
<path fill-rule="evenodd" clip-rule="evenodd" d="M0 55H25.6667V29.3333H0V55Z" fill="#00A4EF"/>
<path fill-rule="evenodd" clip-rule="evenodd" d="M29.3333 55H55V29.3333H29.3333V55Z" fill="#FFB900"/>
</svg>
