<svg width="25" height="20" viewBox="0 0 25 20" fill="none" xmlns="http://www.w3.org/2000/svg">
<mask id="mask0" mask-type="alpha" maskUnits="userSpaceOnUse" x="0" y="0" width="25" height="20">
<path fill-rule="evenodd" clip-rule="evenodd" d="M0 20H24.6112V0H0V20Z" fill="white"/>
</mask>
<g mask="url(#mask0)">
<path fill-rule="evenodd" clip-rule="evenodd" d="M24.6113 2.3682C23.7055 2.76988 22.7322 3.04136 21.7106 3.16345C22.7533 2.53838 23.5541 1.54864 23.9312 0.369353C22.9554 0.948055 21.8745 1.36837 20.7242 1.59492C19.8028 0.613368 18.4903 0 17.0377 0C14.2485 0 11.9872 2.26123 11.9872 5.05029C11.9872 5.44611 12.0319 5.83158 12.118 6.20121C7.9206 5.9906 4.19924 3.97996 1.70831 0.924464C1.27359 1.67037 1.02453 2.53793 1.02453 3.46347C1.02453 5.21561 1.91622 6.76145 3.27136 7.6671C2.44342 7.64089 1.66473 7.41372 0.983743 7.03545C0.983383 7.05652 0.983383 7.07768 0.983383 7.09893C0.983383 9.54592 2.72426 11.5872 5.03465 12.0511C4.61082 12.1665 4.16466 12.2282 3.70401 12.2282C3.3786 12.2282 3.06219 12.1966 2.75388 12.1376C3.39651 14.1441 5.26165 15.6042 7.47165 15.645C5.74319 16.9995 3.56552 17.8069 1.19939 17.8069C0.791773 17.8069 0.389734 17.7831 -0.00537109 17.7364C2.22966 19.1694 4.88437 20.0054 7.73646 20.0054C17.0259 20.0054 22.1058 12.3098 22.1058 5.63592C22.1058 5.41694 22.1009 5.19913 22.0912 4.98258C23.0779 4.27052 23.9342 3.381 24.6113 2.3682Z" fill="white"/>
</g>
</svg>
